<?xml version="1.0" encoding="utf-8" standalone="no"?>
<!DOCTYPE svg PUBLIC "-//W3C//DTD SVG 1.1//EN"
  "http://www.w3.org/Graphics/SVG/1.1/DTD/svg11.dtd">
<svg xmlns:xlink="http://www.w3.org/1999/xlink" width="648pt" height="345.6pt" viewBox="0 0 648 345.6" xmlns="http://www.w3.org/2000/svg" version="1.1">
 <metadata>
  <rdf:RDF xmlns:dc="http://purl.org/dc/elements/1.1/" xmlns:cc="http://creativecommons.org/ns#" xmlns:rdf="http://www.w3.org/1999/02/22-rdf-syntax-ns#">
   <cc:Work>
    <dc:type rdf:resource="http://purl.org/dc/dcmitype/StillImage"/>
    <dc:date>2026-09-15T05:13:36.329591</dc:date>
    <dc:format>image/svg+xml</dc:format>
    <dc:creator>
     <cc:Agent>
      <dc:title>Matplotlib v3.10.8, https://matplotlib.org/</dc:title>
     </cc:Agent>
    </dc:creator>
   </cc:Work>
  </rdf:RDF>
 </metadata>
 <defs>
  <style type="text/css">*{stroke-linejoin: round; stroke-linecap: butt}</style>
 </defs>
 <g id="figure_1">
  <g id="patch_1">
   <path d="M 0 345.6 
L 648 345.6 
L 648 0 
L 0 0 
z
" style="fill: #ffffff"/>
  </g>
  <g id="axes_1">
   <g id="patch_2">
    <path d="M 50.2 288.272 
L 318.06 288.272 
L 318.06 72.096 
L 50.2 72.096 
z
" style="fill: #ffffff"/>
   </g>
   <g id="matplotlib.axis_1">
    <g id="xtick_1">
     <g id="line2d_1">
      <defs>
       <path id="m9f3f5770f4" d="M 0 0 
L 0 3.5 
" style="stroke: #000000; stroke-width: 0.8"/>
      </defs>
      <g>
       <use xlink:href="#m9f3f5770f4" x="113.97619" y="288.272" style="stroke: #000000; stroke-width: 0.8"/>
      </g>
     </g>
     <g id="text_1">
      <text style="font-size: 11px; font-family: 'DejaVu Sans'; text-anchor: middle" x="113.97619" y="303.630281" transform="rotate(-0 113.97619 303.630281)">Probe</text>
     </g>
    </g>
    <g id="xtick_2">
     <g id="line2d_2">
      <g>
       <use xlink:href="#m9f3f5770f4" x="241.528571" y="288.272" style="stroke: #000000; stroke-width: 0.8"/>
      </g>
     </g>
     <g id="text_2">
      <text style="font-size: 11px; font-family: 'DejaVu Sans'; text-anchor: middle" x="241.528571" y="303.630281" transform="rotate(-0 241.528571 303.630281)">J-lens</text>
     </g>
    </g>
   </g>
   <g id="matplotlib.axis_2">
    <g id="ytick_1">
     <g id="line2d_3">
      <defs>
       <path id="m82e1d8fc66" d="M 0 0 
L -3.5 0 
" style="stroke: #000000; stroke-width: 0.8"/>
      </defs>
      <g>
       <use xlink:href="#m82e1d8fc66" x="50.2" y="280.481874" style="stroke: #000000; stroke-width: 0.8"/>
      </g>
     </g>
     <g id="text_3">
      <text style="font-size: 11px; font-family: 'DejaVu Sans'; text-anchor: end" x="43.2" y="284.661014" transform="rotate(-0 43.2 284.661014)">0%</text>
     </g>
    </g>
    <g id="ytick_2">
     <g id="line2d_4">
      <g>
       <use xlink:href="#m82e1d8fc66" x="50.2" y="241.531243" style="stroke: #000000; stroke-width: 0.8"/>
      </g>
     </g>
     <g id="text_4">
      <text style="font-size: 11px; font-family: 'DejaVu Sans'; text-anchor: end" x="43.2" y="245.710384" transform="rotate(-0 43.2 245.710384)">20%</text>
     </g>
    </g>
    <g id="ytick_3">
     <g id="line2d_5">
      <g>
       <use xlink:href="#m82e1d8fc66" x="50.2" y="202.580613" style="stroke: #000000; stroke-width: 0.8"/>
      </g>
     </g>
     <g id="text_5">
      <text style="font-size: 11px; font-family: 'DejaVu Sans'; text-anchor: end" x="43.2" y="206.759753" transform="rotate(-0 43.2 206.759753)">40%</text>
     </g>
    </g>
    <g id="ytick_4">
     <g id="line2d_6">
      <g>
       <use xlink:href="#m82e1d8fc66" x="50.2" y="163.629982" style="stroke: #000000; stroke-width: 0.8"/>
      </g>
     </g>
     <g id="text_6">
      <text style="font-size: 11px; font-family: 'DejaVu Sans'; text-anchor: end" x="43.2" y="167.809123" transform="rotate(-0 43.2 167.809123)">60%</text>
     </g>
    </g>
    <g id="ytick_5">
     <g id="line2d_7">
      <g>
       <use xlink:href="#m82e1d8fc66" x="50.2" y="124.679351" style="stroke: #000000; stroke-width: 0.8"/>
      </g>
     </g>
     <g id="text_7">
      <text style="font-size: 11px; font-family: 'DejaVu Sans'; text-anchor: end" x="43.2" y="128.858492" transform="rotate(-0 43.2 128.858492)">80%</text>
     </g>
    </g>
    <g id="ytick_6">
     <g id="line2d_8">
      <g>
       <use xlink:href="#m82e1d8fc66" x="50.2" y="85.728721" style="stroke: #000000; stroke-width: 0.8"/>
      </g>
     </g>
     <g id="text_8">
      <text style="font-size: 11px; font-family: 'DejaVu Sans'; text-anchor: end" x="43.2" y="89.907861" transform="rotate(-0 43.2 89.907861)">100%</text>
     </g>
    </g>
   </g>
   <g id="patch_3">
    <path d="M 50.2 288.272 
L 50.2 72.096 
" style="fill: none; stroke: #000000; stroke-width: 0.8; stroke-linejoin: miter; stroke-linecap: square"/>
   </g>
   <g id="patch_4">
    <path d="M 50.2 288.272 
L 318.06 288.272 
" style="fill: none; stroke: #000000; stroke-width: 0.8; stroke-linejoin: miter; stroke-linecap: square"/>
   </g>
   <g id="text_9">
    <text style="font-size: 11px; font-family: 'DejaVu Sans'; fill: #7655a0" transform="translate(117.011503 185.392954) rotate(-90)">Not estimable</text>
   </g>
   <g id="text_10">
    <text style="font-size: 11px; font-family: 'DejaVu Sans'; fill: #16827b" transform="translate(244.563884 185.392954) rotate(-90)">Not estimable</text>
   </g>
   <g id="text_11">
    <text style="font-size: 11px; font-family: 'DejaVu Sans'; text-anchor: middle" x="184.13" y="66.096" transform="rotate(-0 184.13 66.096)">Sensitivity on confirmed violations</text>
   </g>
  </g>
  <g id="axes_2">
   <g id="patch_5">
    <path d="M 368.26 288.272 
L 636.12 288.272 
L 636.12 72.096 
L 368.26 72.096 
z
" style="fill: #ffffff"/>
   </g>
   <g id="matplotlib.axis_3">
    <g id="xtick_3">
     <g id="line2d_9">
      <g>
       <use xlink:href="#m9f3f5770f4" x="432.03619" y="288.272" style="stroke: #000000; stroke-width: 0.8"/>
      </g>
     </g>
     <g id="text_12">
      <text style="font-size: 11px; font-family: 'DejaVu Sans'; text-anchor: middle" x="432.03619" y="303.630281" transform="rotate(-0 432.03619 303.630281)">Probe</text>
     </g>
    </g>
    <g id="xtick_4">
     <g id="line2d_10">
      <g>
       <use xlink:href="#m9f3f5770f4" x="559.588571" y="288.272" style="stroke: #000000; stroke-width: 0.8"/>
      </g>
     </g>
     <g id="text_13">
      <text style="font-size: 11px; font-family: 'DejaVu Sans'; text-anchor: middle" x="559.588571" y="303.630281" transform="rotate(-0 559.588571 303.630281)">J-lens</text>
     </g>
    </g>
   </g>
   <g id="matplotlib.axis_4">
    <g id="ytick_7">
     <g id="line2d_11">
      <g>
       <use xlink:href="#m82e1d8fc66" x="368.26" y="280.481874" style="stroke: #000000; stroke-width: 0.8"/>
      </g>
     </g>
     <g id="text_14">
      <text style="font-size: 11px; font-family: 'DejaVu Sans'; text-anchor: end" x="361.26" y="284.661014" transform="rotate(-0 361.26 284.661014)">0%</text>
     </g>
    </g>
    <g id="ytick_8">
     <g id="line2d_12">
      <g>
       <use xlink:href="#m82e1d8fc66" x="368.26" y="241.531243" style="stroke: #000000; stroke-width: 0.8"/>
      </g>
     </g>
     <g id="text_15">
      <text style="font-size: 11px; font-family: 'DejaVu Sans'; text-anchor: end" x="361.26" y="245.710384" transform="rotate(-0 361.26 245.710384)">20%</text>
     </g>
    </g>
    <g id="ytick_9">
     <g id="line2d_13">
      <g>
       <use xlink:href="#m82e1d8fc66" x="368.26" y="202.580613" style="stroke: #000000; stroke-width: 0.8"/>
      </g>
     </g>
     <g id="text_16">
      <text style="font-size: 11px; font-family: 'DejaVu Sans'; text-anchor: end" x="361.26" y="206.759753" transform="rotate(-0 361.26 206.759753)">40%</text>
     </g>
    </g>
    <g id="ytick_10">
     <g id="line2d_14">
      <g>
       <use xlink:href="#m82e1d8fc66" x="368.26" y="163.629982" style="stroke: #000000; stroke-width: 0.8"/>
      </g>
     </g>
     <g id="text_17">
      <text style="font-size: 11px; font-family: 'DejaVu Sans'; text-anchor: end" x="361.26" y="167.809123" transform="rotate(-0 361.26 167.809123)">60%</text>
     </g>
    </g>
    <g id="ytick_11">
     <g id="line2d_15">
      <g>
       <use xlink:href="#m82e1d8fc66" x="368.26" y="124.679351" style="stroke: #000000; stroke-width: 0.8"/>
      </g>
     </g>
     <g id="text_18">
      <text style="font-size: 11px; font-family: 'DejaVu Sans'; text-anchor: end" x="361.26" y="128.858492" transform="rotate(-0 361.26 128.858492)">80%</text>
     </g>
    </g>
    <g id="ytick_12">
     <g id="line2d_16">
      <g>
       <use xlink:href="#m82e1d8fc66" x="368.26" y="85.728721" style="stroke: #000000; stroke-width: 0.8"/>
      </g>
     </g>
     <g id="text_19">
      <text style="font-size: 11px; font-family: 'DejaVu Sans'; text-anchor: end" x="361.26" y="89.907861" transform="rotate(-0 361.26 89.907861)">100%</text>
     </g>
    </g>
   </g>
   <g id="line2d_17">
    <defs>
     <path id="mac2bb5c0c1" d="M 0 4 
C 1.060812 4 2.078319 3.578535 2.828427 2.828427 
C 3.578535 2.078319 4 1.060812 4 0 
C 4 -1.060812 3.578535 -2.078319 2.828427 -2.828427 
C 2.078319 -3.578535 1.060812 -4 0 -4 
C -1.060812 -4 -2.078319 -3.578535 -2.828427 -2.828427 
C -3.578535 -2.078319 -4 -1.060812 -4 0 
C -4 1.060812 -3.578535 2.078319 -2.828427 2.828427 
C -2.078319 3.578535 -1.060812 4 0 4 
z
" style="stroke: #7655a0"/>
    </defs>
    <g clip-path="url(#p901a1d34b9)">
     <use xlink:href="#mac2bb5c0c1" x="432.03619" y="85.728721" style="fill: #7655a0; stroke: #7655a0"/>
    </g>
   </g>
   <g id="LineCollection_1">
    <path d="M 432.03619 85.728721 
L 432.03619 85.728721 
" clip-path="url(#p901a1d34b9)" style="fill: none; stroke: #7655a0; stroke-width: 2"/>
   </g>
   <g id="line2d_18">
    <defs>
     <path id="m28d02d1012" d="M 0 4 
C 1.060812 4 2.078319 3.578535 2.828427 2.828427 
C 3.578535 2.078319 4 1.060812 4 0 
C 4 -1.060812 3.578535 -2.078319 2.828427 -2.828427 
C 2.078319 -3.578535 1.060812 -4 0 -4 
C -1.060812 -4 -2.078319 -3.578535 -2.828427 -2.828427 
C -3.578535 -2.078319 -4 -1.060812 -4 0 
C -4 1.060812 -3.578535 2.078319 -2.828427 2.828427 
C -2.078319 3.578535 -1.060812 4 0 4 
z
" style="stroke: #16827b"/>
    </defs>
    <g clip-path="url(#p901a1d34b9)">
     <use xlink:href="#m28d02d1012" x="559.588571" y="280.481874" style="fill: #16827b; stroke: #16827b"/>
    </g>
   </g>
   <g id="LineCollection_2">
    <path d="M 559.588571 280.481874 
L 559.588571 280.481874 
" clip-path="url(#p901a1d34b9)" style="fill: none; stroke: #16827b; stroke-width: 2"/>
   </g>
   <g id="patch_6">
    <path d="M 368.26 288.272 
L 368.26 72.096 
" style="fill: none; stroke: #000000; stroke-width: 0.8; stroke-linejoin: miter; stroke-linecap: square"/>
   </g>
   <g id="patch_7">
    <path d="M 368.26 288.272 
L 636.12 288.272 
" style="fill: none; stroke: #000000; stroke-width: 0.8; stroke-linejoin: miter; stroke-linecap: square"/>
   </g>
   <g id="text_20">
    <text style="font-size: 11px; font-family: 'DejaVu Sans'; text-anchor: start" x="442.03619" y="88.764033" transform="rotate(-0 442.03619 88.764033)">100.0%</text>
   </g>
   <g id="text_21">
    <text style="font-size: 11px; font-family: 'DejaVu Sans'; text-anchor: start" x="569.588571" y="283.517186" transform="rotate(-0 569.588571 283.517186)">0.0%</text>
   </g>
   <g id="text_22">
    <text style="font-size: 11px; font-family: 'DejaVu Sans'; text-anchor: middle" x="502.19" y="66.096" transform="rotate(-0 502.19 66.096)">False-positive rate on benign cases</text>
   </g>
  </g>
  <g id="text_23">
   <text style="font-size: 12px; font-family: 'DejaVu Sans'; text-anchor: middle" x="324" y="16.082625" transform="rotate(-0 324 16.082625)">Authorized specificity controls | 0 tokens before code onset</text>
  </g>
  <g id="text_24">
   <text style="font-size: 9px; font-family: 'DejaVu Sans'; text-anchor: start" x="45.36" y="336.96" transform="rotate(-0 45.36 336.96)">Lines: 95% family-cluster bootstrap intervals. Zero observed errors do not prove zero population error.</text>
  </g>
 </g>
 <defs>
  <clipPath id="p901a1d34b9">
   <rect x="368.26" y="72.096" width="267.86" height="216.176"/>
  </clipPath>
 </defs>
</svg>
